<mxfile host="Electron" agent="Mozilla/5.0 (Windows NT 10.0; Win64; x64) AppleWebKit/537.36 (KHTML, like Gecko) draw.io/25.0.1 Chrome/128.0.6613.186 Electron/32.2.6 Safari/537.36" version="25.0.1">
  <diagram name="Page-1" id="5gX3Xr60CRV8U2zrEgsa">
    <mxGraphModel dx="819" dy="546" grid="1" gridSize="3.937" guides="1" tooltips="1" connect="1" arrows="1" fold="1" page="1" pageScale="1" pageWidth="827" pageHeight="1169" background="none" math="0" shadow="0">
      <root>
        <mxCell id="0" />
        <mxCell id="1" parent="0" />
        <mxCell id="ql_3GnGEkS4ERAGS1-E4-17" value="" style="endArrow=none;html=1;rounded=1;shadow=0;curved=0;strokeWidth=1.1811;" edge="1" parent="1">
          <mxGeometry width="50" height="50" relative="1" as="geometry">
            <mxPoint x="354.837" y="78.737" as="sourcePoint" />
            <mxPoint x="259.837" y="78.737" as="targetPoint" />
            <Array as="points">
              <mxPoint x="354.837" y="129.73700000000002" />
              <mxPoint x="307.837" y="129.73700000000002" />
              <mxPoint x="259.837" y="129.73700000000002" />
            </Array>
          </mxGeometry>
        </mxCell>
        <mxCell id="ql_3GnGEkS4ERAGS1-E4-18" value="" style="endArrow=none;html=1;rounded=1;shadow=0;curved=0;strokeWidth=1.1811;" edge="1" parent="1">
          <mxGeometry width="50" height="50" relative="1" as="geometry">
            <mxPoint x="350.837" y="78.737" as="sourcePoint" />
            <mxPoint x="263.837" y="78.737" as="targetPoint" />
            <Array as="points">
              <mxPoint x="350.837" y="125.73700000000001" />
              <mxPoint x="263.837" y="125.73700000000001" />
            </Array>
          </mxGeometry>
        </mxCell>
        <mxCell id="ql_3GnGEkS4ERAGS1-E4-20" value="" style="verticalLabelPosition=bottom;verticalAlign=top;html=1;shape=mxgraph.basic.arc;startAngle=0.6370645554213594;endAngle=0.3659153113244902;fillColor=#E6E6E6;" vertex="1" parent="1">
          <mxGeometry x="283.46000000000004" y="78.74" width="48.82" height="48.82" as="geometry" />
        </mxCell>
        <mxCell id="ql_3GnGEkS4ERAGS1-E4-30" value="" style="group" vertex="1" connectable="0" parent="1">
          <mxGeometry x="94" y="79" width="95" height="51" as="geometry" />
        </mxCell>
        <mxCell id="ql_3GnGEkS4ERAGS1-E4-13" value="" style="endArrow=none;html=1;rounded=1;shadow=0;curved=0;strokeWidth=1.1811;" edge="1" parent="ql_3GnGEkS4ERAGS1-E4-30">
          <mxGeometry width="50" height="50" relative="1" as="geometry">
            <mxPoint x="95" as="sourcePoint" />
            <mxPoint as="targetPoint" />
            <Array as="points">
              <mxPoint x="95" y="51" />
              <mxPoint x="48" y="51" />
              <mxPoint y="51" />
            </Array>
          </mxGeometry>
        </mxCell>
        <mxCell id="ql_3GnGEkS4ERAGS1-E4-15" value="" style="endArrow=none;html=1;rounded=1;shadow=0;curved=0;strokeWidth=1.1811;" edge="1" parent="ql_3GnGEkS4ERAGS1-E4-30">
          <mxGeometry width="50" height="50" relative="1" as="geometry">
            <mxPoint x="91" as="sourcePoint" />
            <mxPoint x="4" as="targetPoint" />
            <Array as="points">
              <mxPoint x="91" y="47" />
              <mxPoint x="4" y="47" />
            </Array>
          </mxGeometry>
        </mxCell>
        <mxCell id="ql_3GnGEkS4ERAGS1-E4-31" value="" style="group" vertex="1" connectable="0" parent="1">
          <mxGeometry x="90.547" y="232.28699999999998" width="95" height="51" as="geometry" />
        </mxCell>
        <mxCell id="ql_3GnGEkS4ERAGS1-E4-32" value="" style="endArrow=none;html=1;rounded=1;shadow=0;curved=0;strokeWidth=1.1811;" edge="1" parent="ql_3GnGEkS4ERAGS1-E4-31">
          <mxGeometry width="50" height="50" relative="1" as="geometry">
            <mxPoint x="95" as="sourcePoint" />
            <mxPoint as="targetPoint" />
            <Array as="points">
              <mxPoint x="95" y="51" />
              <mxPoint x="48" y="51" />
              <mxPoint y="51" />
            </Array>
          </mxGeometry>
        </mxCell>
        <mxCell id="ql_3GnGEkS4ERAGS1-E4-33" value="" style="endArrow=none;html=1;rounded=1;shadow=0;curved=0;strokeWidth=1.1811;" edge="1" parent="ql_3GnGEkS4ERAGS1-E4-31">
          <mxGeometry width="50" height="50" relative="1" as="geometry">
            <mxPoint x="91" as="sourcePoint" />
            <mxPoint x="4" as="targetPoint" />
            <Array as="points">
              <mxPoint x="91" y="47" />
              <mxPoint x="4" y="47" />
            </Array>
          </mxGeometry>
        </mxCell>
        <mxCell id="ql_3GnGEkS4ERAGS1-E4-39" value="" style="group" vertex="1" connectable="0" parent="1">
          <mxGeometry x="514.16" y="379.07" width="64.59" height="46.12" as="geometry" />
        </mxCell>
        <mxCell id="ql_3GnGEkS4ERAGS1-E4-35" value="" style="ellipse;whiteSpace=wrap;html=1;aspect=fixed;fillStyle=solid;fillColor=#E6E6E6;strokeColor=default;" vertex="1" parent="ql_3GnGEkS4ERAGS1-E4-39">
          <mxGeometry x="13.522384357408868" y="0.831829177600935" width="31.538547018044728" height="31.538547018044728" as="geometry" />
        </mxCell>
        <mxCell id="ql_3GnGEkS4ERAGS1-E4-36" value="" style="verticalLabelPosition=bottom;verticalAlign=top;html=1;shape=mxgraph.basic.arc;startAngle=0.08689626022677688;endAngle=0.2050773360672707;" vertex="1" parent="ql_3GnGEkS4ERAGS1-E4-39">
          <mxGeometry width="42.724753103977456" height="39.42318377255591" as="geometry" />
        </mxCell>
        <mxCell id="ql_3GnGEkS4ERAGS1-E4-37" value="" style="verticalLabelPosition=bottom;verticalAlign=top;html=1;shape=mxgraph.basic.arc;startAngle=0.9043001817170615;endAngle=0.9910681000229217;" vertex="1" parent="ql_3GnGEkS4ERAGS1-E4-39">
          <mxGeometry x="21.86524689602254" y="6.6968162274440814" width="42.724753103977456" height="39.42318377255591" as="geometry" />
        </mxCell>
        <mxCell id="ql_3GnGEkS4ERAGS1-E4-42" value="Text" style="text;html=1;align=center;verticalAlign=middle;resizable=0;points=[];autosize=1;strokeColor=none;fillColor=none;fontFamily=Helvetica;fontSize=12;fontColor=default;" vertex="1" parent="1">
          <mxGeometry x="214.535" y="266.716" width="43.306999999999995" height="27.558999999999997" as="geometry" />
        </mxCell>
        <mxCell id="ql_3GnGEkS4ERAGS1-E4-77" value="" style="group" vertex="1" connectable="0" parent="1">
          <mxGeometry x="452.757" y="295.277" width="56.00999999999999" height="33.22999999999999" as="geometry" />
        </mxCell>
        <mxCell id="ql_3GnGEkS4ERAGS1-E4-78" value="" style="group;fillColor=none;container=0;fillStyle=dots;" vertex="1" connectable="0" parent="ql_3GnGEkS4ERAGS1-E4-77">
          <mxGeometry width="56.01" height="33.23" as="geometry" />
        </mxCell>
        <mxCell id="ql_3GnGEkS4ERAGS1-E4-79" value="" style="verticalLabelPosition=bottom;verticalAlign=top;html=1;shape=mxgraph.basic.arc;startAngle=0.5228132783035719;endAngle=0.931180165086578;fillStyle=auto;fillColor=#66FFB3;" vertex="1" parent="ql_3GnGEkS4ERAGS1-E4-77">
          <mxGeometry y="10.029958878139894" width="23.170383608225663" height="23.16066798628343" as="geometry" />
        </mxCell>
        <mxCell id="ql_3GnGEkS4ERAGS1-E4-80" value="" style="verticalLabelPosition=bottom;verticalAlign=top;html=1;shape=mxgraph.basic.arc;startAngle=0.7768001258780505;endAngle=0.08146438747349113;" vertex="1" parent="ql_3GnGEkS4ERAGS1-E4-77">
          <mxGeometry x="6.389999999999986" y="1.8200000000000216" width="25.11" height="23.16" as="geometry" />
        </mxCell>
        <mxCell id="ql_3GnGEkS4ERAGS1-E4-81" value="" style="verticalLabelPosition=bottom;verticalAlign=top;html=1;shape=mxgraph.basic.arc;startAngle=0.8805625920328525;endAngle=0.23557103081184777;fillColor=#97D077;" vertex="1" parent="ql_3GnGEkS4ERAGS1-E4-77">
          <mxGeometry x="20.981709172592673" width="23.170383608225663" height="23.16066798628343" as="geometry" />
        </mxCell>
        <mxCell id="ql_3GnGEkS4ERAGS1-E4-82" value="" style="verticalLabelPosition=bottom;verticalAlign=top;html=1;shape=mxgraph.basic.arc;startAngle=0.9911671385559326;endAngle=0.5054236362483322;" vertex="1" parent="ql_3GnGEkS4ERAGS1-E4-77">
          <mxGeometry x="32.839616391774314" y="10.03019048481977" width="23.170383608225663" height="23.16066798628343" as="geometry" />
        </mxCell>
        <mxCell id="ql_3GnGEkS4ERAGS1-E4-83" value="" style="endArrow=none;html=1;rounded=0;" edge="1" parent="ql_3GnGEkS4ERAGS1-E4-77">
          <mxGeometry width="50" height="50" relative="1" as="geometry">
            <mxPoint x="9.863875299403048" y="33.150000000000034" as="sourcePoint" />
            <mxPoint x="44.156043039577014" y="33.150000000000034" as="targetPoint" />
          </mxGeometry>
        </mxCell>
        <mxCell id="ql_3GnGEkS4ERAGS1-E4-84" value="" style="group" vertex="1" connectable="0" parent="1">
          <mxGeometry x="492.12" y="204.71999999999997" width="56.00999999999999" height="33.22999999999996" as="geometry" />
        </mxCell>
        <mxCell id="ql_3GnGEkS4ERAGS1-E4-44" value="" style="group" vertex="1" connectable="0" parent="ql_3GnGEkS4ERAGS1-E4-84">
          <mxGeometry width="56.00999999999999" height="33.22999999999999" as="geometry" />
        </mxCell>
        <mxCell id="ql_3GnGEkS4ERAGS1-E4-28" value="" style="group;fillColor=none;container=0;fillStyle=dots;" vertex="1" connectable="0" parent="ql_3GnGEkS4ERAGS1-E4-44">
          <mxGeometry width="56.01" height="33.23" as="geometry" />
        </mxCell>
        <mxCell id="ql_3GnGEkS4ERAGS1-E4-21" value="" style="verticalLabelPosition=bottom;verticalAlign=top;html=1;shape=mxgraph.basic.arc;startAngle=0.5228132783035719;endAngle=0.931180165086578;fillStyle=auto;fillColor=#66FFB3;" vertex="1" parent="ql_3GnGEkS4ERAGS1-E4-44">
          <mxGeometry y="10.029958878139894" width="23.170383608225663" height="23.16066798628343" as="geometry" />
        </mxCell>
        <mxCell id="ql_3GnGEkS4ERAGS1-E4-22" value="" style="verticalLabelPosition=bottom;verticalAlign=top;html=1;shape=mxgraph.basic.arc;startAngle=0.7768001258780505;endAngle=0.08146438747349113;" vertex="1" parent="ql_3GnGEkS4ERAGS1-E4-44">
          <mxGeometry x="6.389999999999986" y="1.8200000000000216" width="25.11" height="23.16" as="geometry" />
        </mxCell>
        <mxCell id="ql_3GnGEkS4ERAGS1-E4-23" value="" style="verticalLabelPosition=bottom;verticalAlign=top;html=1;shape=mxgraph.basic.arc;startAngle=0.8805625920328525;endAngle=0.23557103081184777;fillColor=#97D077;" vertex="1" parent="ql_3GnGEkS4ERAGS1-E4-44">
          <mxGeometry x="20.981709172592673" width="23.170383608225663" height="23.16066798628343" as="geometry" />
        </mxCell>
        <mxCell id="ql_3GnGEkS4ERAGS1-E4-24" value="" style="verticalLabelPosition=bottom;verticalAlign=top;html=1;shape=mxgraph.basic.arc;startAngle=0.9911671385559326;endAngle=0.5054236362483322;" vertex="1" parent="ql_3GnGEkS4ERAGS1-E4-44">
          <mxGeometry x="32.839616391774314" y="10.03019048481977" width="23.170383608225663" height="23.16066798628343" as="geometry" />
        </mxCell>
        <mxCell id="ql_3GnGEkS4ERAGS1-E4-25" value="" style="endArrow=none;html=1;rounded=0;" edge="1" parent="ql_3GnGEkS4ERAGS1-E4-44">
          <mxGeometry width="50" height="50" relative="1" as="geometry">
            <mxPoint x="9.863875299403048" y="33.150000000000034" as="sourcePoint" />
            <mxPoint x="44.156043039577014" y="33.150000000000034" as="targetPoint" />
          </mxGeometry>
        </mxCell>
        <mxCell id="ql_3GnGEkS4ERAGS1-E4-76" value="" style="group" vertex="1" connectable="0" parent="ql_3GnGEkS4ERAGS1-E4-84">
          <mxGeometry x="8.740000000000009" y="7.755000000000109" width="39.37500000000017" height="22.93199999999996" as="geometry" />
        </mxCell>
        <mxCell id="ql_3GnGEkS4ERAGS1-E4-59" value="" style="ellipse;whiteSpace=wrap;html=1;fillStyle=auto;strokeColor=none;align=center;verticalAlign=middle;fontFamily=Helvetica;fontSize=12;fontColor=default;fillColor=#999999;" vertex="1" parent="ql_3GnGEkS4ERAGS1-E4-76">
          <mxGeometry y="10.784999999999968" width="3.95" height="4.09" as="geometry" />
        </mxCell>
        <mxCell id="ql_3GnGEkS4ERAGS1-E4-60" value="" style="ellipse;whiteSpace=wrap;html=1;fillStyle=auto;strokeColor=none;align=center;verticalAlign=middle;fontFamily=Helvetica;fontSize=12;fontColor=default;fillColor=#999999;" vertex="1" parent="ql_3GnGEkS4ERAGS1-E4-76">
          <mxGeometry x="7.867000000000019" y="18.841999999999985" width="3.95" height="4.09" as="geometry" />
        </mxCell>
        <mxCell id="ql_3GnGEkS4ERAGS1-E4-61" value="" style="ellipse;whiteSpace=wrap;html=1;fillStyle=auto;strokeColor=none;align=center;verticalAlign=middle;fontFamily=Helvetica;fontSize=12;fontColor=default;fillColor=#999999;" vertex="1" parent="ql_3GnGEkS4ERAGS1-E4-76">
          <mxGeometry x="15.744000000000085" y="7.868999999999971" width="3.95" height="4.09" as="geometry" />
        </mxCell>
        <mxCell id="ql_3GnGEkS4ERAGS1-E4-62" value="" style="ellipse;whiteSpace=wrap;html=1;fillStyle=auto;strokeColor=none;align=center;verticalAlign=middle;fontFamily=Helvetica;fontSize=12;fontColor=default;fillColor=#999999;" vertex="1" parent="ql_3GnGEkS4ERAGS1-E4-76">
          <mxGeometry x="23.62100000000015" y="14.875999999999976" width="3.95" height="4.09" as="geometry" />
        </mxCell>
        <mxCell id="ql_3GnGEkS4ERAGS1-E4-63" value="" style="ellipse;whiteSpace=wrap;html=1;fillStyle=auto;strokeColor=none;align=center;verticalAlign=middle;fontFamily=Helvetica;fontSize=12;fontColor=default;fillColor=#999999;" vertex="1" parent="ql_3GnGEkS4ERAGS1-E4-76">
          <mxGeometry x="27.568000000000154" y="3.782999999999987" width="3.95" height="4.09" as="geometry" />
        </mxCell>
        <mxCell id="ql_3GnGEkS4ERAGS1-E4-64" value="" style="ellipse;whiteSpace=wrap;html=1;fillStyle=auto;strokeColor=none;align=center;verticalAlign=middle;fontFamily=Helvetica;fontSize=12;fontColor=default;fillColor=#999999;" vertex="1" parent="ql_3GnGEkS4ERAGS1-E4-76">
          <mxGeometry x="7.865000000000123" width="3.95" height="4.09" as="geometry" />
        </mxCell>
        <mxCell id="ql_3GnGEkS4ERAGS1-E4-75" value="" style="ellipse;whiteSpace=wrap;html=1;fillStyle=auto;strokeColor=none;align=center;verticalAlign=middle;fontFamily=Helvetica;fontSize=12;fontColor=default;fillColor=#999999;" vertex="1" parent="ql_3GnGEkS4ERAGS1-E4-76">
          <mxGeometry x="35.425000000000125" y="11.95999999999998" width="3.95" height="4.09" as="geometry" />
        </mxCell>
        <mxCell id="ql_3GnGEkS4ERAGS1-E4-105" value="" style="group" vertex="1" connectable="0" parent="1">
          <mxGeometry x="98.304" y="248.03" width="77.70599999999999" height="22.744000000000028" as="geometry" />
        </mxCell>
        <mxCell id="ql_3GnGEkS4ERAGS1-E4-94" value="" style="group" vertex="1" connectable="0" parent="ql_3GnGEkS4ERAGS1-E4-105">
          <mxGeometry x="0.12600000000000477" width="77.57999999999998" height="8.870000000000005" as="geometry" />
        </mxCell>
        <mxCell id="ql_3GnGEkS4ERAGS1-E4-87" value="" style="pointerEvents=1;verticalLabelPosition=bottom;shadow=0;dashed=0;align=center;html=1;verticalAlign=top;shape=mxgraph.electrical.waveforms.sine_wave;fillStyle=dots;strokeColor=default;fontFamily=Helvetica;fontSize=12;fontColor=default;fillColor=#FF0000;" vertex="1" parent="ql_3GnGEkS4ERAGS1-E4-94">
          <mxGeometry y="0.47999999999996135" width="19.68" height="7.87" as="geometry" />
        </mxCell>
        <mxCell id="ql_3GnGEkS4ERAGS1-E4-88" value="" style="pointerEvents=1;verticalLabelPosition=bottom;shadow=0;dashed=0;align=center;html=1;verticalAlign=top;shape=mxgraph.electrical.waveforms.sine_wave;fillStyle=dots;strokeColor=default;fontFamily=Helvetica;fontSize=12;fontColor=default;fillColor=#FF0000;" vertex="1" parent="ql_3GnGEkS4ERAGS1-E4-94">
          <mxGeometry x="39.359999999999985" width="19.78" height="8.87" as="geometry" />
        </mxCell>
        <mxCell id="ql_3GnGEkS4ERAGS1-E4-89" value="" style="pointerEvents=1;verticalLabelPosition=bottom;shadow=0;dashed=0;align=center;html=1;verticalAlign=top;shape=mxgraph.electrical.waveforms.sine_wave;fillStyle=dots;strokeColor=default;fontFamily=Helvetica;fontSize=12;fontColor=default;fillColor=#FF0000;" vertex="1" parent="ql_3GnGEkS4ERAGS1-E4-94">
          <mxGeometry x="19.679999999999993" y="0.47999999999996135" width="19.74" height="7.9" as="geometry" />
        </mxCell>
        <mxCell id="ql_3GnGEkS4ERAGS1-E4-90" value="" style="pointerEvents=1;verticalLabelPosition=bottom;shadow=0;dashed=0;align=center;html=1;verticalAlign=top;shape=mxgraph.electrical.waveforms.sine_wave;fillStyle=dots;strokeColor=default;fontFamily=Helvetica;fontSize=12;fontColor=default;fillColor=#FF0000;" vertex="1" parent="ql_3GnGEkS4ERAGS1-E4-94">
          <mxGeometry x="59.04999999999998" y="1" width="18.53" height="6.9" as="geometry" />
        </mxCell>
        <mxCell id="ql_3GnGEkS4ERAGS1-E4-95" value="" style="group" vertex="1" connectable="0" parent="ql_3GnGEkS4ERAGS1-E4-105">
          <mxGeometry x="0.06300000000000239" y="6.937000000000012" width="77.57999999999998" height="8.870000000000005" as="geometry" />
        </mxCell>
        <mxCell id="ql_3GnGEkS4ERAGS1-E4-96" value="" style="pointerEvents=1;verticalLabelPosition=bottom;shadow=0;dashed=0;align=center;html=1;verticalAlign=top;shape=mxgraph.electrical.waveforms.sine_wave;fillStyle=dots;strokeColor=default;fontFamily=Helvetica;fontSize=12;fontColor=default;fillColor=#FF0000;" vertex="1" parent="ql_3GnGEkS4ERAGS1-E4-95">
          <mxGeometry y="0.47999999999996135" width="19.68" height="7.87" as="geometry" />
        </mxCell>
        <mxCell id="ql_3GnGEkS4ERAGS1-E4-97" value="" style="pointerEvents=1;verticalLabelPosition=bottom;shadow=0;dashed=0;align=center;html=1;verticalAlign=top;shape=mxgraph.electrical.waveforms.sine_wave;fillStyle=dots;strokeColor=default;fontFamily=Helvetica;fontSize=12;fontColor=default;fillColor=#FF0000;" vertex="1" parent="ql_3GnGEkS4ERAGS1-E4-95">
          <mxGeometry x="39.359999999999985" width="19.78" height="8.87" as="geometry" />
        </mxCell>
        <mxCell id="ql_3GnGEkS4ERAGS1-E4-98" value="" style="pointerEvents=1;verticalLabelPosition=bottom;shadow=0;dashed=0;align=center;html=1;verticalAlign=top;shape=mxgraph.electrical.waveforms.sine_wave;fillStyle=dots;strokeColor=default;fontFamily=Helvetica;fontSize=12;fontColor=default;fillColor=#FF0000;" vertex="1" parent="ql_3GnGEkS4ERAGS1-E4-95">
          <mxGeometry x="19.679999999999993" y="0.47999999999996135" width="19.74" height="7.9" as="geometry" />
        </mxCell>
        <mxCell id="ql_3GnGEkS4ERAGS1-E4-99" value="" style="pointerEvents=1;verticalLabelPosition=bottom;shadow=0;dashed=0;align=center;html=1;verticalAlign=top;shape=mxgraph.electrical.waveforms.sine_wave;fillStyle=dots;strokeColor=default;fontFamily=Helvetica;fontSize=12;fontColor=default;fillColor=#FF0000;" vertex="1" parent="ql_3GnGEkS4ERAGS1-E4-95">
          <mxGeometry x="59.04999999999998" y="1" width="18.53" height="6.9" as="geometry" />
        </mxCell>
        <mxCell id="ql_3GnGEkS4ERAGS1-E4-100" value="" style="group" vertex="1" connectable="0" parent="ql_3GnGEkS4ERAGS1-E4-105">
          <mxGeometry y="13.874000000000024" width="77.57999999999998" height="8.870000000000005" as="geometry" />
        </mxCell>
        <mxCell id="ql_3GnGEkS4ERAGS1-E4-101" value="" style="pointerEvents=1;verticalLabelPosition=bottom;shadow=0;dashed=0;align=center;html=1;verticalAlign=top;shape=mxgraph.electrical.waveforms.sine_wave;fillStyle=dots;strokeColor=default;fontFamily=Helvetica;fontSize=12;fontColor=default;fillColor=#FF0000;" vertex="1" parent="ql_3GnGEkS4ERAGS1-E4-100">
          <mxGeometry y="0.47999999999996135" width="19.68" height="7.87" as="geometry" />
        </mxCell>
        <mxCell id="ql_3GnGEkS4ERAGS1-E4-102" value="" style="pointerEvents=1;verticalLabelPosition=bottom;shadow=0;dashed=0;align=center;html=1;verticalAlign=top;shape=mxgraph.electrical.waveforms.sine_wave;fillStyle=dots;strokeColor=default;fontFamily=Helvetica;fontSize=12;fontColor=default;fillColor=#FF0000;" vertex="1" parent="ql_3GnGEkS4ERAGS1-E4-100">
          <mxGeometry x="39.359999999999985" width="19.78" height="8.87" as="geometry" />
        </mxCell>
        <mxCell id="ql_3GnGEkS4ERAGS1-E4-103" value="" style="pointerEvents=1;verticalLabelPosition=bottom;shadow=0;dashed=0;align=center;html=1;verticalAlign=top;shape=mxgraph.electrical.waveforms.sine_wave;fillStyle=dots;strokeColor=default;fontFamily=Helvetica;fontSize=12;fontColor=default;fillColor=#FF0000;" vertex="1" parent="ql_3GnGEkS4ERAGS1-E4-100">
          <mxGeometry x="19.679999999999993" y="0.47999999999996135" width="19.74" height="7.9" as="geometry" />
        </mxCell>
        <mxCell id="ql_3GnGEkS4ERAGS1-E4-104" value="" style="pointerEvents=1;verticalLabelPosition=bottom;shadow=0;dashed=0;align=center;html=1;verticalAlign=top;shape=mxgraph.electrical.waveforms.sine_wave;fillStyle=dots;strokeColor=default;fontFamily=Helvetica;fontSize=12;fontColor=default;fillColor=#FF0000;" vertex="1" parent="ql_3GnGEkS4ERAGS1-E4-100">
          <mxGeometry x="59.04999999999998" y="1" width="18.53" height="6.9" as="geometry" />
        </mxCell>
        <mxCell id="ql_3GnGEkS4ERAGS1-E4-111" value="" style="group" vertex="1" connectable="0" parent="1">
          <mxGeometry x="448.82099999999997" y="255.907" width="77.70599999999999" height="22.744000000000028" as="geometry" />
        </mxCell>
        <mxCell id="ql_3GnGEkS4ERAGS1-E4-112" value="" style="group" vertex="1" connectable="0" parent="ql_3GnGEkS4ERAGS1-E4-111">
          <mxGeometry x="0.12600000000000477" width="77.57999999999998" height="8.870000000000005" as="geometry" />
        </mxCell>
        <mxCell id="ql_3GnGEkS4ERAGS1-E4-113" value="" style="pointerEvents=1;verticalLabelPosition=bottom;shadow=0;dashed=0;align=center;html=1;verticalAlign=top;shape=mxgraph.electrical.waveforms.sine_wave;fillStyle=dots;strokeColor=default;fontFamily=Helvetica;fontSize=12;fontColor=default;fillColor=#FF0000;" vertex="1" parent="ql_3GnGEkS4ERAGS1-E4-112">
          <mxGeometry y="0.47999999999996135" width="19.68" height="7.87" as="geometry" />
        </mxCell>
        <mxCell id="ql_3GnGEkS4ERAGS1-E4-114" value="" style="pointerEvents=1;verticalLabelPosition=bottom;shadow=0;dashed=0;align=center;html=1;verticalAlign=top;shape=mxgraph.electrical.waveforms.sine_wave;fillStyle=dots;strokeColor=default;fontFamily=Helvetica;fontSize=12;fontColor=default;fillColor=#FF0000;" vertex="1" parent="ql_3GnGEkS4ERAGS1-E4-112">
          <mxGeometry x="39.359999999999985" width="19.78" height="8.87" as="geometry" />
        </mxCell>
        <mxCell id="ql_3GnGEkS4ERAGS1-E4-115" value="" style="pointerEvents=1;verticalLabelPosition=bottom;shadow=0;dashed=0;align=center;html=1;verticalAlign=top;shape=mxgraph.electrical.waveforms.sine_wave;fillStyle=dots;strokeColor=default;fontFamily=Helvetica;fontSize=12;fontColor=default;fillColor=#FF0000;" vertex="1" parent="ql_3GnGEkS4ERAGS1-E4-112">
          <mxGeometry x="19.679999999999993" y="0.47999999999996135" width="19.74" height="7.9" as="geometry" />
        </mxCell>
        <mxCell id="ql_3GnGEkS4ERAGS1-E4-116" value="" style="pointerEvents=1;verticalLabelPosition=bottom;shadow=0;dashed=0;align=center;html=1;verticalAlign=top;shape=mxgraph.electrical.waveforms.sine_wave;fillStyle=dots;strokeColor=default;fontFamily=Helvetica;fontSize=12;fontColor=default;fillColor=#FF0000;" vertex="1" parent="ql_3GnGEkS4ERAGS1-E4-112">
          <mxGeometry x="59.04999999999998" y="1" width="18.53" height="6.9" as="geometry" />
        </mxCell>
        <mxCell id="ql_3GnGEkS4ERAGS1-E4-117" value="" style="group" vertex="1" connectable="0" parent="ql_3GnGEkS4ERAGS1-E4-111">
          <mxGeometry x="0.06300000000000239" y="6.937000000000012" width="77.57999999999998" height="8.870000000000005" as="geometry" />
        </mxCell>
        <mxCell id="ql_3GnGEkS4ERAGS1-E4-118" value="" style="pointerEvents=1;verticalLabelPosition=bottom;shadow=0;dashed=0;align=center;html=1;verticalAlign=top;shape=mxgraph.electrical.waveforms.sine_wave;fillStyle=dots;strokeColor=default;fontFamily=Helvetica;fontSize=12;fontColor=default;fillColor=#FF0000;" vertex="1" parent="ql_3GnGEkS4ERAGS1-E4-117">
          <mxGeometry y="0.47999999999996135" width="19.68" height="7.87" as="geometry" />
        </mxCell>
        <mxCell id="ql_3GnGEkS4ERAGS1-E4-119" value="" style="pointerEvents=1;verticalLabelPosition=bottom;shadow=0;dashed=0;align=center;html=1;verticalAlign=top;shape=mxgraph.electrical.waveforms.sine_wave;fillStyle=dots;strokeColor=default;fontFamily=Helvetica;fontSize=12;fontColor=default;fillColor=#FF0000;" vertex="1" parent="ql_3GnGEkS4ERAGS1-E4-117">
          <mxGeometry x="39.359999999999985" width="19.78" height="8.87" as="geometry" />
        </mxCell>
        <mxCell id="ql_3GnGEkS4ERAGS1-E4-120" value="" style="pointerEvents=1;verticalLabelPosition=bottom;shadow=0;dashed=0;align=center;html=1;verticalAlign=top;shape=mxgraph.electrical.waveforms.sine_wave;fillStyle=dots;strokeColor=default;fontFamily=Helvetica;fontSize=12;fontColor=default;fillColor=#FF0000;" vertex="1" parent="ql_3GnGEkS4ERAGS1-E4-117">
          <mxGeometry x="19.679999999999993" y="0.47999999999996135" width="19.74" height="7.9" as="geometry" />
        </mxCell>
        <mxCell id="ql_3GnGEkS4ERAGS1-E4-121" value="" style="pointerEvents=1;verticalLabelPosition=bottom;shadow=0;dashed=0;align=center;html=1;verticalAlign=top;shape=mxgraph.electrical.waveforms.sine_wave;fillStyle=dots;strokeColor=default;fontFamily=Helvetica;fontSize=12;fontColor=default;fillColor=#FF0000;" vertex="1" parent="ql_3GnGEkS4ERAGS1-E4-117">
          <mxGeometry x="59.04999999999998" y="1" width="18.53" height="6.9" as="geometry" />
        </mxCell>
        <mxCell id="ql_3GnGEkS4ERAGS1-E4-122" value="" style="group" vertex="1" connectable="0" parent="ql_3GnGEkS4ERAGS1-E4-111">
          <mxGeometry y="13.874000000000024" width="77.57999999999998" height="8.870000000000005" as="geometry" />
        </mxCell>
        <mxCell id="ql_3GnGEkS4ERAGS1-E4-123" value="" style="pointerEvents=1;verticalLabelPosition=bottom;shadow=0;dashed=0;align=center;html=1;verticalAlign=top;shape=mxgraph.electrical.waveforms.sine_wave;fillStyle=dots;strokeColor=default;fontFamily=Helvetica;fontSize=12;fontColor=default;fillColor=#FF0000;" vertex="1" parent="ql_3GnGEkS4ERAGS1-E4-122">
          <mxGeometry y="0.47999999999996135" width="19.68" height="7.87" as="geometry" />
        </mxCell>
        <mxCell id="ql_3GnGEkS4ERAGS1-E4-124" value="" style="pointerEvents=1;verticalLabelPosition=bottom;shadow=0;dashed=0;align=center;html=1;verticalAlign=top;shape=mxgraph.electrical.waveforms.sine_wave;fillStyle=dots;strokeColor=default;fontFamily=Helvetica;fontSize=12;fontColor=default;fillColor=#FF0000;" vertex="1" parent="ql_3GnGEkS4ERAGS1-E4-122">
          <mxGeometry x="39.359999999999985" width="19.78" height="8.87" as="geometry" />
        </mxCell>
        <mxCell id="ql_3GnGEkS4ERAGS1-E4-125" value="" style="pointerEvents=1;verticalLabelPosition=bottom;shadow=0;dashed=0;align=center;html=1;verticalAlign=top;shape=mxgraph.electrical.waveforms.sine_wave;fillStyle=dots;strokeColor=default;fontFamily=Helvetica;fontSize=12;fontColor=default;fillColor=#FF0000;" vertex="1" parent="ql_3GnGEkS4ERAGS1-E4-122">
          <mxGeometry x="19.679999999999993" y="0.47999999999996135" width="19.74" height="7.9" as="geometry" />
        </mxCell>
        <mxCell id="ql_3GnGEkS4ERAGS1-E4-126" value="" style="pointerEvents=1;verticalLabelPosition=bottom;shadow=0;dashed=0;align=center;html=1;verticalAlign=top;shape=mxgraph.electrical.waveforms.sine_wave;fillStyle=dots;strokeColor=default;fontFamily=Helvetica;fontSize=12;fontColor=default;fillColor=#FF0000;" vertex="1" parent="ql_3GnGEkS4ERAGS1-E4-122">
          <mxGeometry x="59.04999999999998" y="1" width="18.53" height="6.9" as="geometry" />
        </mxCell>
        <mxCell id="ql_3GnGEkS4ERAGS1-E4-127" value="" style="group" vertex="1" connectable="0" parent="1">
          <mxGeometry x="114.17699999999999" y="456.697" width="95" height="51" as="geometry" />
        </mxCell>
        <mxCell id="ql_3GnGEkS4ERAGS1-E4-128" value="" style="endArrow=none;html=1;rounded=1;shadow=0;curved=0;strokeWidth=1.1811;" edge="1" parent="ql_3GnGEkS4ERAGS1-E4-127">
          <mxGeometry width="50" height="50" relative="1" as="geometry">
            <mxPoint x="95" as="sourcePoint" />
            <mxPoint as="targetPoint" />
            <Array as="points">
              <mxPoint x="95" y="51" />
              <mxPoint x="48" y="51" />
              <mxPoint y="51" />
            </Array>
          </mxGeometry>
        </mxCell>
        <mxCell id="ql_3GnGEkS4ERAGS1-E4-129" value="" style="endArrow=none;html=1;rounded=1;shadow=0;curved=0;strokeWidth=1.1811;" edge="1" parent="ql_3GnGEkS4ERAGS1-E4-127">
          <mxGeometry width="50" height="50" relative="1" as="geometry">
            <mxPoint x="91" as="sourcePoint" />
            <mxPoint x="4" as="targetPoint" />
            <Array as="points">
              <mxPoint x="91" y="47" />
              <mxPoint x="4" y="47" />
            </Array>
          </mxGeometry>
        </mxCell>
        <mxCell id="ql_3GnGEkS4ERAGS1-E4-130" value="" style="group" vertex="1" connectable="0" parent="1">
          <mxGeometry x="122.048" y="468.504" width="77.70599999999999" height="22.744000000000028" as="geometry" />
        </mxCell>
        <mxCell id="ql_3GnGEkS4ERAGS1-E4-131" value="" style="group" vertex="1" connectable="0" parent="ql_3GnGEkS4ERAGS1-E4-130">
          <mxGeometry x="0.12600000000000477" width="77.57999999999998" height="8.870000000000005" as="geometry" />
        </mxCell>
        <mxCell id="ql_3GnGEkS4ERAGS1-E4-132" value="" style="pointerEvents=1;verticalLabelPosition=bottom;shadow=0;dashed=0;align=center;html=1;verticalAlign=top;shape=mxgraph.electrical.waveforms.sine_wave;fillStyle=dots;strokeColor=default;fontFamily=Helvetica;fontSize=12;fontColor=default;fillColor=#FF0000;" vertex="1" parent="ql_3GnGEkS4ERAGS1-E4-131">
          <mxGeometry y="0.47999999999996135" width="19.68" height="7.87" as="geometry" />
        </mxCell>
        <mxCell id="ql_3GnGEkS4ERAGS1-E4-133" value="" style="pointerEvents=1;verticalLabelPosition=bottom;shadow=0;dashed=0;align=center;html=1;verticalAlign=top;shape=mxgraph.electrical.waveforms.sine_wave;fillStyle=dots;strokeColor=default;fontFamily=Helvetica;fontSize=12;fontColor=default;fillColor=#FF0000;" vertex="1" parent="ql_3GnGEkS4ERAGS1-E4-131">
          <mxGeometry x="39.359999999999985" width="19.78" height="8.87" as="geometry" />
        </mxCell>
        <mxCell id="ql_3GnGEkS4ERAGS1-E4-134" value="" style="pointerEvents=1;verticalLabelPosition=bottom;shadow=0;dashed=0;align=center;html=1;verticalAlign=top;shape=mxgraph.electrical.waveforms.sine_wave;fillStyle=dots;strokeColor=default;fontFamily=Helvetica;fontSize=12;fontColor=default;fillColor=#FF0000;" vertex="1" parent="ql_3GnGEkS4ERAGS1-E4-131">
          <mxGeometry x="19.679999999999993" y="0.47999999999996135" width="19.74" height="7.9" as="geometry" />
        </mxCell>
        <mxCell id="ql_3GnGEkS4ERAGS1-E4-135" value="" style="pointerEvents=1;verticalLabelPosition=bottom;shadow=0;dashed=0;align=center;html=1;verticalAlign=top;shape=mxgraph.electrical.waveforms.sine_wave;fillStyle=dots;strokeColor=default;fontFamily=Helvetica;fontSize=12;fontColor=default;fillColor=#FF0000;" vertex="1" parent="ql_3GnGEkS4ERAGS1-E4-131">
          <mxGeometry x="59.04999999999998" y="1" width="18.53" height="6.9" as="geometry" />
        </mxCell>
        <mxCell id="ql_3GnGEkS4ERAGS1-E4-136" value="" style="group" vertex="1" connectable="0" parent="ql_3GnGEkS4ERAGS1-E4-130">
          <mxGeometry x="0.06300000000000239" y="6.937000000000012" width="77.57999999999998" height="8.870000000000005" as="geometry" />
        </mxCell>
        <mxCell id="ql_3GnGEkS4ERAGS1-E4-137" value="" style="pointerEvents=1;verticalLabelPosition=bottom;shadow=0;dashed=0;align=center;html=1;verticalAlign=top;shape=mxgraph.electrical.waveforms.sine_wave;fillStyle=dots;strokeColor=default;fontFamily=Helvetica;fontSize=12;fontColor=default;fillColor=#FF0000;" vertex="1" parent="ql_3GnGEkS4ERAGS1-E4-136">
          <mxGeometry y="0.47999999999996135" width="19.68" height="7.87" as="geometry" />
        </mxCell>
        <mxCell id="ql_3GnGEkS4ERAGS1-E4-138" value="" style="pointerEvents=1;verticalLabelPosition=bottom;shadow=0;dashed=0;align=center;html=1;verticalAlign=top;shape=mxgraph.electrical.waveforms.sine_wave;fillStyle=dots;strokeColor=default;fontFamily=Helvetica;fontSize=12;fontColor=default;fillColor=#FF0000;" vertex="1" parent="ql_3GnGEkS4ERAGS1-E4-136">
          <mxGeometry x="39.359999999999985" width="19.78" height="8.87" as="geometry" />
        </mxCell>
        <mxCell id="ql_3GnGEkS4ERAGS1-E4-139" value="" style="pointerEvents=1;verticalLabelPosition=bottom;shadow=0;dashed=0;align=center;html=1;verticalAlign=top;shape=mxgraph.electrical.waveforms.sine_wave;fillStyle=dots;strokeColor=default;fontFamily=Helvetica;fontSize=12;fontColor=default;fillColor=#FF0000;" vertex="1" parent="ql_3GnGEkS4ERAGS1-E4-136">
          <mxGeometry x="19.679999999999993" y="0.47999999999996135" width="19.74" height="7.9" as="geometry" />
        </mxCell>
        <mxCell id="ql_3GnGEkS4ERAGS1-E4-140" value="" style="pointerEvents=1;verticalLabelPosition=bottom;shadow=0;dashed=0;align=center;html=1;verticalAlign=top;shape=mxgraph.electrical.waveforms.sine_wave;fillStyle=dots;strokeColor=default;fontFamily=Helvetica;fontSize=12;fontColor=default;fillColor=#FF0000;" vertex="1" parent="ql_3GnGEkS4ERAGS1-E4-136">
          <mxGeometry x="59.04999999999998" y="1" width="18.53" height="6.9" as="geometry" />
        </mxCell>
        <mxCell id="ql_3GnGEkS4ERAGS1-E4-141" value="" style="group" vertex="1" connectable="0" parent="ql_3GnGEkS4ERAGS1-E4-130">
          <mxGeometry y="13.874000000000024" width="77.57999999999998" height="8.870000000000005" as="geometry" />
        </mxCell>
        <mxCell id="ql_3GnGEkS4ERAGS1-E4-142" value="" style="pointerEvents=1;verticalLabelPosition=bottom;shadow=0;dashed=0;align=center;html=1;verticalAlign=top;shape=mxgraph.electrical.waveforms.sine_wave;fillStyle=dots;strokeColor=default;fontFamily=Helvetica;fontSize=12;fontColor=default;fillColor=#FF0000;" vertex="1" parent="ql_3GnGEkS4ERAGS1-E4-141">
          <mxGeometry y="0.47999999999996135" width="19.68" height="7.87" as="geometry" />
        </mxCell>
        <mxCell id="ql_3GnGEkS4ERAGS1-E4-143" value="" style="pointerEvents=1;verticalLabelPosition=bottom;shadow=0;dashed=0;align=center;html=1;verticalAlign=top;shape=mxgraph.electrical.waveforms.sine_wave;fillStyle=dots;strokeColor=default;fontFamily=Helvetica;fontSize=12;fontColor=default;fillColor=#FF0000;" vertex="1" parent="ql_3GnGEkS4ERAGS1-E4-141">
          <mxGeometry x="39.359999999999985" width="19.78" height="8.87" as="geometry" />
        </mxCell>
        <mxCell id="ql_3GnGEkS4ERAGS1-E4-144" value="" style="pointerEvents=1;verticalLabelPosition=bottom;shadow=0;dashed=0;align=center;html=1;verticalAlign=top;shape=mxgraph.electrical.waveforms.sine_wave;fillStyle=dots;strokeColor=default;fontFamily=Helvetica;fontSize=12;fontColor=default;fillColor=#FF0000;" vertex="1" parent="ql_3GnGEkS4ERAGS1-E4-141">
          <mxGeometry x="19.679999999999993" y="0.47999999999996135" width="19.74" height="7.9" as="geometry" />
        </mxCell>
        <mxCell id="ql_3GnGEkS4ERAGS1-E4-145" value="" style="pointerEvents=1;verticalLabelPosition=bottom;shadow=0;dashed=0;align=center;html=1;verticalAlign=top;shape=mxgraph.electrical.waveforms.sine_wave;fillStyle=dots;strokeColor=default;fontFamily=Helvetica;fontSize=12;fontColor=default;fillColor=#FF0000;" vertex="1" parent="ql_3GnGEkS4ERAGS1-E4-141">
          <mxGeometry x="59.04999999999998" y="1" width="18.53" height="6.9" as="geometry" />
        </mxCell>
        <mxCell id="ql_3GnGEkS4ERAGS1-E4-147" value="" style="endArrow=classic;html=1;rounded=1;fontFamily=Helvetica;fontSize=12;fontColor=default;curved=0;" edge="1" parent="1">
          <mxGeometry width="50" height="50" relative="1" as="geometry">
            <mxPoint x="83" y="394" as="sourcePoint" />
            <mxPoint x="138" y="453" as="targetPoint" />
            <Array as="points">
              <mxPoint x="122" y="398" />
              <mxPoint x="134" y="402" />
              <mxPoint x="138" y="413" />
            </Array>
          </mxGeometry>
        </mxCell>
        <mxCell id="ql_3GnGEkS4ERAGS1-E4-150" value="Farina" style="text;html=1;align=center;verticalAlign=middle;resizable=0;points=[];autosize=1;strokeColor=none;fillColor=none;fontFamily=Helvetica;fontSize=12;fontColor=default;" vertex="1" parent="1">
          <mxGeometry x="35.306999999999995" y="377.95" width="55.117999999999995" height="27.558999999999997" as="geometry" />
        </mxCell>
        <mxCell id="ql_3GnGEkS4ERAGS1-E4-151" value="" style="endArrow=classic;html=1;rounded=1;fontFamily=Helvetica;fontSize=12;fontColor=default;curved=0;" edge="1" parent="1">
          <mxGeometry width="50" height="50" relative="1" as="geometry">
            <mxPoint x="188" y="367" as="sourcePoint" />
            <mxPoint x="156.04700000000003" y="441.077" as="targetPoint" />
            <Array as="points">
              <mxPoint x="156.04700000000003" y="389.077" />
            </Array>
          </mxGeometry>
        </mxCell>
        <mxCell id="ql_3GnGEkS4ERAGS1-E4-152" value="" style="endArrow=classic;html=1;rounded=1;fontFamily=Helvetica;fontSize=12;fontColor=default;curved=0;" edge="1" parent="1">
          <mxGeometry width="50" height="50" relative="1" as="geometry">
            <mxPoint x="228" y="378" as="sourcePoint" />
            <mxPoint x="173.23" y="449.52" as="targetPoint" />
            <Array as="points">
              <mxPoint x="185" y="402" />
              <mxPoint x="173.23" y="425.52" />
            </Array>
          </mxGeometry>
        </mxCell>
        <mxCell id="ql_3GnGEkS4ERAGS1-E4-153" value="" style="endArrow=classic;html=1;rounded=1;fontFamily=Helvetica;fontSize=12;fontColor=default;curved=0;" edge="1" parent="1">
          <mxGeometry width="50" height="50" relative="1" as="geometry">
            <mxPoint x="252" y="409" as="sourcePoint" />
            <mxPoint x="192.91100000000006" y="465.031" as="targetPoint" />
            <Array as="points">
              <mxPoint x="192.91100000000006" y="413.031" />
            </Array>
          </mxGeometry>
        </mxCell>
        <mxCell id="ql_3GnGEkS4ERAGS1-E4-154" value="Zucchero" style="text;html=1;align=center;verticalAlign=middle;resizable=0;points=[];autosize=1;strokeColor=none;fillColor=none;fontFamily=Helvetica;fontSize=12;fontColor=default;" vertex="1" parent="1">
          <mxGeometry x="157.35399999999998" y="342.517" width="70.866" height="27.558999999999997" as="geometry" />
        </mxCell>
        <mxCell id="ql_3GnGEkS4ERAGS1-E4-155" value="Acqua" style="text;html=1;align=center;verticalAlign=middle;resizable=0;points=[];autosize=1;strokeColor=none;fillColor=none;fontFamily=Helvetica;fontSize=12;fontColor=default;" vertex="1" parent="1">
          <mxGeometry x="224.411" y="362.204" width="55.117999999999995" height="27.558999999999997" as="geometry" />
        </mxCell>
        <mxCell id="ql_3GnGEkS4ERAGS1-E4-156" value="" style="group" vertex="1" connectable="0" parent="1">
          <mxGeometry x="248.027" y="393.697" width="64.59" height="46.12" as="geometry" />
        </mxCell>
        <mxCell id="ql_3GnGEkS4ERAGS1-E4-157" value="" style="ellipse;whiteSpace=wrap;html=1;aspect=fixed;fillStyle=solid;fillColor=#E6E6E6;strokeColor=default;" vertex="1" parent="ql_3GnGEkS4ERAGS1-E4-156">
          <mxGeometry x="13.522384357408868" y="0.831829177600935" width="31.538547018044728" height="31.538547018044728" as="geometry" />
        </mxCell>
        <mxCell id="ql_3GnGEkS4ERAGS1-E4-158" value="" style="verticalLabelPosition=bottom;verticalAlign=top;html=1;shape=mxgraph.basic.arc;startAngle=0.08689626022677688;endAngle=0.2050773360672707;" vertex="1" parent="ql_3GnGEkS4ERAGS1-E4-156">
          <mxGeometry width="42.724753103977456" height="39.42318377255591" as="geometry" />
        </mxCell>
        <mxCell id="ql_3GnGEkS4ERAGS1-E4-159" value="" style="verticalLabelPosition=bottom;verticalAlign=top;html=1;shape=mxgraph.basic.arc;startAngle=0.9043001817170615;endAngle=0.9910681000229217;" vertex="1" parent="ql_3GnGEkS4ERAGS1-E4-156">
          <mxGeometry x="21.86524689602254" y="6.6968162274440814" width="42.724753103977456" height="39.42318377255591" as="geometry" />
        </mxCell>
        <mxCell id="ql_3GnGEkS4ERAGS1-E4-160" value="Pasta Madre" style="text;html=1;align=center;verticalAlign=middle;resizable=0;points=[];autosize=1;strokeColor=none;fillColor=none;fontFamily=Helvetica;fontSize=12;fontColor=default;" vertex="1" parent="1">
          <mxGeometry x="291.341" y="397.634" width="90.551" height="27.558999999999997" as="geometry" />
        </mxCell>
        <mxCell id="ql_3GnGEkS4ERAGS1-E4-162" value="" style="endArrow=none;html=1;rounded=0;fontFamily=Helvetica;fontSize=12;fontColor=default;curved=0;strokeWidth=1.1810999999999998;" edge="1" parent="1">
          <mxGeometry width="50" height="50" relative="1" as="geometry">
            <mxPoint x="310.02" y="550.4399999999999" as="sourcePoint" />
            <mxPoint x="310.02" y="472.44" as="targetPoint" />
          </mxGeometry>
        </mxCell>
        <mxCell id="ql_3GnGEkS4ERAGS1-E4-164" value="" style="endArrow=none;html=1;rounded=0;fontFamily=Helvetica;fontSize=12;fontColor=default;curved=0;strokeWidth=3.1496;" edge="1" parent="1">
          <mxGeometry width="50" height="50" relative="1" as="geometry">
            <mxPoint x="309.937" y="550.937" as="sourcePoint" />
            <mxPoint x="343" y="524" as="targetPoint" />
          </mxGeometry>
        </mxCell>
        <mxCell id="ql_3GnGEkS4ERAGS1-E4-166" value="" style="endArrow=none;html=1;rounded=0;fontFamily=Helvetica;fontSize=12;fontColor=default;curved=0;strokeWidth=3.1496;" edge="1" parent="1">
          <mxGeometry width="50" height="50" relative="1" as="geometry">
            <mxPoint x="341.494" y="525.124" as="sourcePoint" />
            <mxPoint x="310.62" y="490.25" as="targetPoint" />
          </mxGeometry>
        </mxCell>
        <mxCell id="ql_3GnGEkS4ERAGS1-E4-168" value="" style="endArrow=none;html=1;rounded=0;fontFamily=Helvetica;fontSize=12;fontColor=default;curved=0;strokeWidth=3.1496;" edge="1" parent="1">
          <mxGeometry width="50" height="50" relative="1" as="geometry">
            <mxPoint x="327" y="539" as="sourcePoint" />
            <mxPoint x="311.02700000000004" y="519.687" as="targetPoint" />
          </mxGeometry>
        </mxCell>
        <mxCell id="ql_3GnGEkS4ERAGS1-E4-170" value="" style="endArrow=none;html=1;rounded=0;fontFamily=Helvetica;fontSize=12;fontColor=default;curved=0;strokeWidth=1.1810999999999998;" edge="1" parent="1">
          <mxGeometry width="50" height="50" relative="1" as="geometry">
            <mxPoint x="306.957" y="550.377" as="sourcePoint" />
            <mxPoint x="306.957" y="472.377" as="targetPoint" />
          </mxGeometry>
        </mxCell>
        <mxCell id="ql_3GnGEkS4ERAGS1-E4-173" value="" style="rounded=1;whiteSpace=wrap;html=1;fillStyle=auto;strokeColor=default;align=center;verticalAlign=middle;fontFamily=Helvetica;fontSize=12;fontColor=default;fillColor=#FFFFFF;gradientColor=none;" vertex="1" parent="1">
          <mxGeometry x="299.21" y="468.5" width="19.69" height="3.94" as="geometry" />
        </mxCell>
      </root>
    </mxGraphModel>
  </diagram>
</mxfile>
